<svg xmlns="http://www.w3.org/2000/svg" width="2000" height="880"><rect width="100%" height="100%" fill="white"/>
<rect x="610" y="120" width="1330" height="700" rx="0" fill="#F1F1F1" stroke="black" stroke-width="3"/>
<text x="1260" y="179" font-family="Arial" font-size="48" font-weight="bold" text-anchor="middle">Chữ ký số</text>
<circle cx="230" cy="182.0" r="22" fill="white" stroke="black" stroke-width="3"/>
<polyline points="230,204.0 230,260.0" fill="none" stroke="black" stroke-width="3"/>
<polyline points="190,224.0 270,224.0" fill="none" stroke="black" stroke-width="3"/>
<polyline points="230,260.0 195,303.0" fill="none" stroke="black" stroke-width="3"/>
<polyline points="230,260.0 265,303.0" fill="none" stroke="black" stroke-width="3"/>
<text x="230" y="354.0" font-family="Arial" font-size="48" font-weight="normal" text-anchor="middle">Lãnh đạo có</text>
<text x="230" y="411.0" font-family="Arial" font-size="48" font-weight="normal" text-anchor="middle">thẩm quyền</text>
<circle cx="230" cy="472.0" r="22" fill="white" stroke="black" stroke-width="3"/>
<polyline points="230,494.0 230,550.0" fill="none" stroke="black" stroke-width="3"/>
<polyline points="190,514.0 270,514.0" fill="none" stroke="black" stroke-width="3"/>
<polyline points="230,550.0 195,593.0" fill="none" stroke="black" stroke-width="3"/>
<polyline points="230,550.0 265,593.0" fill="none" stroke="black" stroke-width="3"/>
<text x="230" y="644.0" font-family="Arial" font-size="48" font-weight="normal" text-anchor="middle">Quản trị tích hợp</text>
<ellipse cx="1280" cy="325" rx="530" ry="65" fill="white" stroke="black" stroke-width="3"/>
<text x="1280" y="324" font-family="Arial" font-size="48" font-weight="normal" text-anchor="middle">UC10 Ký kết quả theo thẩm quyền</text>
<polyline points="270,224.0 450,224.0 450,325 750,325" fill="none" stroke="black" stroke-width="3"/>
<ellipse cx="1280" cy="515" rx="530" ry="65" fill="white" stroke="black" stroke-width="3"/>
<text x="1280" y="514" font-family="Arial" font-size="48" font-weight="normal" text-anchor="middle">UC11 Kết nối dịch vụ ký</text>
<polyline points="270,514.0 500,514.0 500,515 750,515" fill="none" stroke="black" stroke-width="3"/>
</svg>