<svg xmlns="http://www.w3.org/2000/svg" width="2200" height="1530"><rect width="100%" height="100%" fill="white"/>
<text x="1100" y="64" font-family="Arial" font-size="48" font-weight="bold" text-anchor="middle">Biểu đồ lớp Danh mục và quy trình</text>
<rect x="80" y="160" width="920" height="470" rx="0" fill="#F1F1F1" stroke="black" stroke-width="3"/>
<polyline points="80,250 1000,250" fill="none" stroke="black" stroke-width="3"/>
<polyline points="80,495 1000,495" fill="none" stroke="black" stroke-width="3"/>
<text x="540" y="226" font-family="Arial" font-size="48" font-weight="bold" text-anchor="middle">ThuTuc</text>
<text x="100" y="316" font-family="Arial" font-size="48" font-weight="normal" text-anchor="start">− id: ĐịnhDanh</text>
<text x="100" y="373" font-family="Arial" font-size="48" font-weight="normal" text-anchor="start">− ma_quoc_gia: Chuỗi</text>
<text x="100" y="430" font-family="Arial" font-size="48" font-weight="normal" text-anchor="start">− ten: Chuỗi</text>
<text x="100" y="487" font-family="Arial" font-size="48" font-weight="normal" text-anchor="start">− linh_vuc: Chuỗi</text>
<text x="100" y="557" font-family="Arial" font-size="48" font-weight="normal" text-anchor="start">+ kiemTraHopLe()</text>
<rect x="1200" y="160" width="920" height="470" rx="0" fill="#F1F1F1" stroke="black" stroke-width="3"/>
<polyline points="1200,250 2120,250" fill="none" stroke="black" stroke-width="3"/>
<polyline points="1200,495 2120,495" fill="none" stroke="black" stroke-width="3"/>
<text x="1660" y="226" font-family="Arial" font-size="48" font-weight="bold" text-anchor="middle">PhienBanThuTuc</text>
<text x="1220" y="316" font-family="Arial" font-size="48" font-weight="normal" text-anchor="start">− id: ĐịnhDanh</text>
<text x="1220" y="373" font-family="Arial" font-size="48" font-weight="normal" text-anchor="start">− thu_tuc_id: ĐịnhDanh</text>
<text x="1220" y="430" font-family="Arial" font-size="48" font-weight="normal" text-anchor="start">− co_quan_id: ĐịnhDanh</text>
<text x="1220" y="487" font-family="Arial" font-size="48" font-weight="normal" text-anchor="start">− so_phien_ban: SốNguyên</text>
<text x="1220" y="557" font-family="Arial" font-size="48" font-weight="normal" text-anchor="start">+ congBoPhienBan()</text>
<text x="1220" y="614" font-family="Arial" font-size="48" font-weight="normal" text-anchor="start">+ cauHinhTrangThai()</text>
<rect x="80" y="840" width="920" height="470" rx="0" fill="#F1F1F1" stroke="black" stroke-width="3"/>
<polyline points="80,930 1000,930" fill="none" stroke="black" stroke-width="3"/>
<polyline points="80,1175 1000,1175" fill="none" stroke="black" stroke-width="3"/>
<text x="540" y="906" font-family="Arial" font-size="48" font-weight="bold" text-anchor="middle">TuyenXuLy</text>
<text x="100" y="996" font-family="Arial" font-size="48" font-weight="normal" text-anchor="start">− id: ĐịnhDanh</text>
<text x="100" y="1053" font-family="Arial" font-size="48" font-weight="normal" text-anchor="start">− phien_ban_id: ĐịnhDanh</text>
<text x="100" y="1110" font-family="Arial" font-size="48" font-weight="normal" text-anchor="start">− he_thong_id: ĐịnhDanh</text>
<text x="100" y="1167" font-family="Arial" font-size="48" font-weight="normal" text-anchor="start">− hieu_luc_tu: ThờiĐiểm</text>
<text x="100" y="1237" font-family="Arial" font-size="48" font-weight="normal" text-anchor="start">+ kiemTraHopLe()</text>
<rect x="1200" y="840" width="920" height="470" rx="0" fill="#F1F1F1" stroke="black" stroke-width="3"/>
<polyline points="1200,930 2120,930" fill="none" stroke="black" stroke-width="3"/>
<polyline points="1200,1175 2120,1175" fill="none" stroke="black" stroke-width="3"/>
<text x="1660" y="906" font-family="Arial" font-size="48" font-weight="bold" text-anchor="middle">LichLamViec</text>
<text x="1220" y="996" font-family="Arial" font-size="48" font-weight="normal" text-anchor="start">− id: ĐịnhDanh</text>
<text x="1220" y="1053" font-family="Arial" font-size="48" font-weight="normal" text-anchor="start">− co_quan_id: ĐịnhDanh</text>
<text x="1220" y="1110" font-family="Arial" font-size="48" font-weight="normal" text-anchor="start">− ngay: ThờiĐiểm</text>
<text x="1220" y="1167" font-family="Arial" font-size="48" font-weight="normal" text-anchor="start">− la_ngay_lam: Logic</text>
<text x="1220" y="1237" font-family="Arial" font-size="48" font-weight="normal" text-anchor="start">+ kiemTraHopLe()</text>
<polyline points="1200,460 1000,460" fill="none" stroke="black" stroke-width="3"/>
<text x="1155" y="524" font-family="Arial" font-size="48" font-weight="normal" text-anchor="middle">0..*</text>
<text x="1045" y="439" font-family="Arial" font-size="48" font-weight="normal" text-anchor="middle">1</text>
<polyline points="580,840 580,735.0 1700,735.0 1700,630" fill="none" stroke="black" stroke-width="3"/>
<text x="680" y="824" font-family="Arial" font-size="48" font-weight="normal" text-anchor="middle">0..*</text>
<text x="1800" y="686" font-family="Arial" font-size="48" font-weight="normal" text-anchor="middle">1</text>
</svg>