<svg xmlns="http://www.w3.org/2000/svg" width="2000" height="1170"><rect width="100%" height="100%" fill="white"/>
<text x="1000" y="64" font-family="Arial" font-size="48" font-weight="bold" text-anchor="middle">Các thành phần và giao tiếp cần cung cấp</text>
<rect x="90" y="170" width="760" height="230" rx="0" fill="#F1F1F1" stroke="black" stroke-width="3"/>
<text x="470.0" y="232" font-family="Arial" font-size="48" font-weight="normal" text-anchor="middle">«thành phần»</text>
<text x="470.0" y="289" font-family="Arial" font-size="48" font-weight="normal" text-anchor="middle">Giao diện cán bộ</text>
<rect x="780" y="200" width="45" height="65" rx="0" fill="#F1F1F1" stroke="black" stroke-width="3"/>
<rect x="760" y="205" width="30" height="15" rx="0" fill="#F1F1F1" stroke="black" stroke-width="3"/>
<rect x="760" y="235" width="30" height="15" rx="0" fill="#F1F1F1" stroke="black" stroke-width="3"/>
<rect x="1130" y="170" width="760" height="230" rx="0" fill="#F1F1F1" stroke="black" stroke-width="3"/>
<text x="1510.0" y="232" font-family="Arial" font-size="48" font-weight="normal" text-anchor="middle">«thành phần»</text>
<text x="1510.0" y="289" font-family="Arial" font-size="48" font-weight="normal" text-anchor="middle">Nghiệp vụ hồ sơ</text>
<rect x="1820" y="200" width="45" height="65" rx="0" fill="#F1F1F1" stroke="black" stroke-width="3"/>
<rect x="1800" y="205" width="30" height="15" rx="0" fill="#F1F1F1" stroke="black" stroke-width="3"/>
<rect x="1800" y="235" width="30" height="15" rx="0" fill="#F1F1F1" stroke="black" stroke-width="3"/>
<rect x="90" y="750" width="760" height="230" rx="0" fill="#F1F1F1" stroke="black" stroke-width="3"/>
<text x="470.0" y="812" font-family="Arial" font-size="48" font-weight="normal" text-anchor="middle">«thành phần»</text>
<text x="470.0" y="869" font-family="Arial" font-size="48" font-weight="normal" text-anchor="middle">Bộ tích hợp</text>
<rect x="780" y="780" width="45" height="65" rx="0" fill="#F1F1F1" stroke="black" stroke-width="3"/>
<rect x="760" y="785" width="30" height="15" rx="0" fill="#F1F1F1" stroke="black" stroke-width="3"/>
<rect x="760" y="815" width="30" height="15" rx="0" fill="#F1F1F1" stroke="black" stroke-width="3"/>
<rect x="1130" y="750" width="760" height="230" rx="0" fill="#F1F1F1" stroke="black" stroke-width="3"/>
<text x="1510.0" y="812" font-family="Arial" font-size="48" font-weight="normal" text-anchor="middle">«thành phần»</text>
<text x="1510.0" y="869" font-family="Arial" font-size="48" font-weight="normal" text-anchor="middle">Kho dữ liệu</text>
<rect x="1820" y="780" width="45" height="65" rx="0" fill="#F1F1F1" stroke="black" stroke-width="3"/>
<rect x="1800" y="785" width="30" height="15" rx="0" fill="#F1F1F1" stroke="black" stroke-width="3"/>
<rect x="1800" y="815" width="30" height="15" rx="0" fill="#F1F1F1" stroke="black" stroke-width="3"/>
<polyline points="850,285 1130,285" fill="none" stroke="black" stroke-width="3" stroke-dasharray="14 10"/>
<polygon points="1130,285 1110.0,277.0 1110.0,293.0" fill="black" stroke="black" stroke-width="3"/>
<rect x="770.5" y="418" width="439.0" height="55" fill="white"/>
<text x="990.0" y="464" font-family="Arial" font-size="48" font-weight="normal" text-anchor="middle">Giao tiếp tác nghiệp</text>
<polyline points="1510,400 1510,600 1510,600 1510,750" fill="none" stroke="black" stroke-width="3" stroke-dasharray="14 10"/>
<polygon points="1510,750 1518.0,730.0 1502.0,730.0" fill="black" stroke="black" stroke-width="3"/>
<rect x="1572.5" y="468" width="375.0" height="55" fill="white"/>
<text x="1760" y="514" font-family="Arial" font-size="48" font-weight="normal" text-anchor="middle">Lưu trữ theo hợp</text>
<rect x="1701.0" y="525" width="118.0" height="55" fill="white"/>
<text x="1760" y="571" font-family="Arial" font-size="48" font-weight="normal" text-anchor="middle">đồng</text>
<polyline points="1510,400 1510,600 470,600 470,750" fill="none" stroke="black" stroke-width="3" stroke-dasharray="14 10"/>
<polygon points="470,750 478.0,730.0 462.0,730.0" fill="black" stroke="black" stroke-width="3"/>
<rect x="811.015625" y="618" width="357.96875" height="55" fill="white"/>
<text x="990.0" y="664" font-family="Arial" font-size="48" font-weight="normal" text-anchor="middle">Trao đổi sự kiện</text>
</svg>