<svg xmlns="http://www.w3.org/2000/svg" width="2000" height="1050" viewBox="0 0 2000 1050">
<rect width="100%" height="100%" fill="white"/>
<defs><marker id="a" markerWidth="10" markerHeight="10" refX="8" refY="3" orient="auto"><path d="M0,0 L0,6 L9,3 z" fill="black"/></marker></defs>
<text x="1000.0" y="46" text-anchor="middle" font-family="Times New Roman" font-size="34" font-weight="bold">Quan hệ giữa các nhóm thực thể thiết kế</text>
<line x1="570" y1="220.0" x2="750" y2="520.0" stroke="black" stroke-width="3" marker-end="url(#a)"/>
<rect x="592.0" y="316.0" width="135.0" height="39.0" fill="white"/>
<text x="660.0" y="351.0" text-anchor="middle" font-family="Times New Roman" font-size="34" font-weight="normal">1 : nhiều</text>
<line x1="1000.0" y1="300" x2="1000.0" y2="440" stroke="black" stroke-width="3" marker-end="url(#a)"/>
<rect x="932.0" y="316.0" width="135.0" height="39.0" fill="white"/>
<text x="1000.0" y="351.0" text-anchor="middle" font-family="Times New Roman" font-size="34" font-weight="normal">1 : nhiều</text>
<line x1="1680.0" y1="300" x2="1680.0" y2="440" stroke="black" stroke-width="3" marker-end="url(#a)"/>
<rect x="1612.0" y="316.0" width="135.0" height="39.0" fill="white"/>
<text x="1680.0" y="351.0" text-anchor="middle" font-family="Times New Roman" font-size="34" font-weight="normal">1 : nhiều</text>
<line x1="750" y1="520.0" x2="570" y2="520.0" stroke="black" stroke-width="3" marker-end="url(#a)"/>
<rect x="592.0" y="466.0" width="135.0" height="39.0" fill="white"/>
<text x="660.0" y="501.0" text-anchor="middle" font-family="Times New Roman" font-size="34" font-weight="normal">1 : nhiều</text>
<line x1="1250" y1="520.0" x2="1430" y2="520.0" stroke="black" stroke-width="3" marker-end="url(#a)"/>
<rect x="1272.0" y="466.0" width="135.0" height="39.0" fill="white"/>
<text x="1340.0" y="501.0" text-anchor="middle" font-family="Times New Roman" font-size="34" font-weight="normal">1 : nhiều</text>
<line x1="750" y1="520.0" x2="570" y2="870.0" stroke="black" stroke-width="3" marker-end="url(#a)"/>
<rect x="592.0" y="641.0" width="135.0" height="39.0" fill="white"/>
<text x="660.0" y="676.0" text-anchor="middle" font-family="Times New Roman" font-size="34" font-weight="normal">1 : nhiều</text>
<line x1="1000.0" y1="600" x2="1000.0" y2="790" stroke="black" stroke-width="3" marker-end="url(#a)"/>
<rect x="932.0" y="641.0" width="135.0" height="39.0" fill="white"/>
<text x="1000.0" y="676.0" text-anchor="middle" font-family="Times New Roman" font-size="34" font-weight="normal">1 : nhiều</text>
<line x1="1250" y1="870.0" x2="1430" y2="870.0" stroke="black" stroke-width="3" marker-end="url(#a)"/>
<rect x="1272.0" y="816.0" width="135.0" height="39.0" fill="white"/>
<text x="1340.0" y="851.0" text-anchor="middle" font-family="Times New Roman" font-size="34" font-weight="normal">1 : nhiều</text>
<rect x="70" y="140" width="500" height="160" fill="white" stroke="black" stroke-width="3"/>
<text x="320.0" y="208.0" text-anchor="middle" font-family="Times New Roman" font-size="34" font-weight="normal">THỦ TỤC</text>
<text x="320.0" y="251.0" text-anchor="middle" font-family="Times New Roman" font-size="34" font-weight="normal">PHIÊN BẢN</text>
<rect x="750" y="140" width="500" height="160" fill="white" stroke="black" stroke-width="3"/>
<text x="1000.0" y="208.0" text-anchor="middle" font-family="Times New Roman" font-size="34" font-weight="normal">CHỦ THỂ</text>
<text x="1000.0" y="251.0" text-anchor="middle" font-family="Times New Roman" font-size="34" font-weight="normal">NGƯỜI YÊU CẦU</text>
<rect x="1430" y="140" width="500" height="160" fill="white" stroke="black" stroke-width="3"/>
<text x="1680.0" y="208.0" text-anchor="middle" font-family="Times New Roman" font-size="34" font-weight="normal">CƠ QUAN</text>
<text x="1680.0" y="251.0" text-anchor="middle" font-family="Times New Roman" font-size="34" font-weight="normal">TÀI KHOẢN</text>
<rect x="750" y="440" width="500" height="160" fill="white" stroke="black" stroke-width="3"/>
<text x="1000.0" y="529.5" text-anchor="middle" font-family="Times New Roman" font-size="34" font-weight="normal">HỒ SƠ</text>
<rect x="70" y="440" width="500" height="160" fill="white" stroke="black" stroke-width="3"/>
<text x="320.0" y="508.0" text-anchor="middle" font-family="Times New Roman" font-size="34" font-weight="normal">THÀNH PHẦN</text>
<text x="320.0" y="551.0" text-anchor="middle" font-family="Times New Roman" font-size="34" font-weight="normal">BỔ SUNG</text>
<rect x="1430" y="440" width="500" height="160" fill="white" stroke="black" stroke-width="3"/>
<text x="1680.0" y="508.0" text-anchor="middle" font-family="Times New Roman" font-size="34" font-weight="normal">PHÂN CÔNG</text>
<text x="1680.0" y="551.0" text-anchor="middle" font-family="Times New Roman" font-size="34" font-weight="normal">SỰ KIỆN</text>
<rect x="70" y="790" width="500" height="160" fill="white" stroke="black" stroke-width="3"/>
<text x="320.0" y="858.0" text-anchor="middle" font-family="Times New Roman" font-size="34" font-weight="normal">KHOẢN THU</text>
<text x="320.0" y="901.0" text-anchor="middle" font-family="Times New Roman" font-size="34" font-weight="normal">GIAO DỊCH</text>
<rect x="750" y="790" width="500" height="160" fill="white" stroke="black" stroke-width="3"/>
<text x="1000.0" y="858.0" text-anchor="middle" font-family="Times New Roman" font-size="34" font-weight="normal">KẾT QUẢ</text>
<text x="1000.0" y="901.0" text-anchor="middle" font-family="Times New Roman" font-size="34" font-weight="normal">CHỮ KÝ</text>
<rect x="1430" y="790" width="500" height="160" fill="white" stroke="black" stroke-width="3"/>
<text x="1680.0" y="858.0" text-anchor="middle" font-family="Times New Roman" font-size="34" font-weight="normal">GIAO NHẬN</text>
<text x="1680.0" y="901.0" text-anchor="middle" font-family="Times New Roman" font-size="34" font-weight="normal">HÀNG ĐỢI</text>
</svg>